<svg xmlns="http://www.w3.org/2000/svg" width="100" height="116" viewBox="0 0 200 116" fill="none">
  <path d="M169.231 42.2839C154.608 27.1649 129.268 6.10345 122.465 0.386197C121.812 -0.162428 120.853 -0.122001 120.247 0.4786C115.812 4.85605 115.87 12.0286 120.374 16.331C133.668 29.0245 147.846 44.6285 153.713 50.9175C163.19 61.0757 164.374 70.7258 164.484 73.9424C164.507 74.647 164.027 75.1956 163.409 75.5363C147.944 84.1353 120.617 66.3599 111.394 69.5881C102.57 72.6719 106.248 87.0921 118.619 90.3377C156.572 100.282 147.661 107.876 167.458 109.99C184.194 111.775 199.151 104.729 199.139 104.117C198.787 83.6213 187.162 60.839 169.219 42.2896L169.231 42.2839Z" fill="#000000"/>
  <path d="M84.6327 2.0032L84.4421 2.19376C84.3959 2.13024 84.3613 2.06672 84.3151 2.0032C84.3151 2.0032 47.1356 25.0743 29.9319 42.2839C11.3999 60.8216 0 84.3259 0 105.064C0 105.064 11.5962 112.127 31.6932 109.984C51.4899 107.876 42.5791 100.276 80.5325 90.3319C92.9025 87.0921 96.5812 72.6719 87.757 69.5823C78.2629 66.2617 49.0644 84.1296 34.6731 75.0686C34.6731 75.0686 33.8184 63.38 45.4435 50.9117C49.8152 46.2224 67.2095 32.5126 82.2014 20.951C91.1354 29.8387 99.024 37.8082 106.277 44.9692C123.891 62.3635 141.268 64.7948 144.52 61.5146L84.6269 1.99164L84.6327 2.0032Z" fill="#000000"/>
  <path d="M86.1284 33.5983C85.4412 32.911 84.7655 32.2354 84.0899 31.5597C83.6972 31.167 83.3045 30.7743 82.906 30.3758C72.4648 38.7438 60.3546 48.4516 57.0571 51.0965C47.3666 58.8697 45.045 65.8575 46.3675 67.5033L87.2257 34.6955C86.8619 34.3317 86.498 33.9679 86.1284 33.5983Z" fill="#000000"/>
  <path d="M91.9669 39.4425L58.1023 66.8796C59.4074 68.537 66.3143 68.2021 75.2251 61.2085C78.0376 59.0025 87.5952 51.1774 96.4425 43.9182C94.9757 42.4571 93.4857 40.9671 91.9611 39.4425H91.9669Z" fill="#000000"/>
</svg>