<svg xmlns="http://www.w3.org/2000/svg" width="600" height="116" viewBox="0 0 600 116" fill="none">
  <path d="M169.231 42.2839C154.608 27.1649 129.268 6.10345 122.465 0.386197C121.812 -0.162428 120.853 -0.122001 120.247 0.4786C115.812 4.85605 115.87 12.0286 120.374 16.331C133.668 29.0245 147.846 44.6285 153.713 50.9175C163.19 61.0757 164.374 70.7258 164.484 73.9424C164.507 74.647 164.027 75.1956 163.409 75.5363C147.944 84.1353 120.617 66.3599 111.394 69.5881C102.57 72.6719 106.248 87.0921 118.619 90.3377C156.572 100.282 147.661 107.876 167.458 109.99C184.194 111.775 199.151 104.729 199.139 104.117C198.787 83.6213 187.162 60.839 169.219 42.2896L169.231 42.2839Z" fill="#005591"/>
  <path d="M84.6327 2.0032L84.4421 2.19376C84.3959 2.13024 84.3613 2.06672 84.3151 2.0032C84.3151 2.0032 47.1356 25.0743 29.9319 42.2839C11.3999 60.8216 0 84.3259 0 105.064C0 105.064 11.5962 112.127 31.6932 109.984C51.4899 107.876 42.5791 100.276 80.5325 90.3319C92.9025 87.0921 96.5812 72.6719 87.757 69.5823C78.2629 66.2617 49.0644 84.1296 34.6731 75.0686C34.6731 75.0686 33.8184 63.38 45.4435 50.9117C49.8152 46.2224 67.2095 32.5126 82.2014 20.951C91.1354 29.8387 99.024 37.8082 106.277 44.9692C123.891 62.3635 141.268 64.7948 144.52 61.5146L84.6269 1.99164L84.6327 2.0032Z" fill="#005591"/>
  <path d="M86.1284 33.5983C85.4412 32.911 84.7655 32.2354 84.0899 31.5597C83.6972 31.167 83.3045 30.7743 82.906 30.3758C72.4648 38.7438 60.3546 48.4516 57.0571 51.0965C47.3666 58.8697 45.045 65.8575 46.3675 67.5033L87.2257 34.6955C86.8619 34.3317 86.498 33.9679 86.1284 33.5983Z" fill="#005591"/>
  <path d="M91.9669 39.4425L58.1023 66.8796C59.4074 68.537 66.3143 68.2021 75.2251 61.2085C78.0376 59.0025 87.5952 51.1774 96.4425 43.9182C94.9757 42.4571 93.4857 40.9671 91.9611 39.4425H91.9669Z" fill="#005591"/>
  <path d="M268.318 17.7805V57.1141H261.868V30.1737L249.873 57.1141H245.403L233.351 30.1737V57.1141H226.9V17.7805H233.859L247.667 48.6248L261.417 17.7805H268.324H268.318Z" fill="#005591"/>
  <path d="M276.045 33.0612C277.345 30.6472 279.118 28.7704 281.364 27.4306C283.611 26.0908 286.088 25.4208 288.808 25.4208C291.262 25.4208 293.399 25.9002 295.23 26.8646C297.061 27.829 298.522 29.0245 299.613 30.4567V25.9291H306.122V57.1141H299.613V52.471C298.516 53.9436 297.026 55.1679 295.143 56.1497C293.255 57.1314 291.107 57.6223 288.693 57.6223C286.013 57.6223 283.559 56.9351 281.335 55.5548C279.106 54.1804 277.345 52.2515 276.045 49.7798C274.746 47.3081 274.093 44.5072 274.093 41.3772C274.093 38.2471 274.746 35.4751 276.045 33.0554V33.0612ZM298.285 35.8909C297.396 34.3086 296.241 33.1016 294.803 32.27C293.37 31.4384 291.823 31.0226 290.159 31.0226C288.496 31.0226 286.954 31.4269 285.516 32.2411C284.084 33.0554 282.923 34.2393 282.034 35.8043C281.145 37.3693 280.706 39.2289 280.706 41.3772C280.706 43.5255 281.15 45.4139 282.034 47.0367C282.918 48.6595 284.09 49.8953 285.545 50.7442C286.995 51.5932 288.537 52.0148 290.159 52.0148C291.782 52.0148 293.365 51.5989 294.803 50.7673C296.235 49.9357 297.396 48.723 298.285 47.1175C299.168 45.5121 299.613 43.6352 299.613 41.4869C299.613 39.3386 299.168 37.4675 298.285 35.8852V35.8909Z" fill="#005591"/>
  <path d="M313.849 33.0612C315.148 30.6472 316.921 28.7703 319.167 27.4305C321.414 26.0907 323.909 25.4208 326.663 25.4208C328.702 25.4208 330.712 25.8655 332.692 26.7491C334.673 27.6384 336.25 28.8165 337.416 30.2834V15.2279H343.925V57.1083H337.416V52.4132C336.359 53.9205 334.898 55.1679 333.033 56.1496C331.168 57.1314 329.025 57.6223 326.611 57.6223C323.897 57.6223 321.414 56.935 319.167 55.5548C316.921 54.1804 315.148 52.2515 313.849 49.7798C312.549 47.3081 311.897 44.5072 311.897 41.3772C311.897 38.2471 312.549 35.4751 313.849 33.0554V33.0612ZM336.088 35.8909C335.199 34.3086 334.044 33.1016 332.606 32.27C331.174 31.4384 329.626 31.0226 327.963 31.0226C326.299 31.0226 324.758 31.4268 323.32 32.2411C321.887 33.0554 320.727 34.2393 319.837 35.8043C318.948 37.3693 318.509 39.2289 318.509 41.3772C318.509 43.5255 318.954 45.4139 319.837 47.0367C320.721 48.6595 321.893 49.8953 323.348 50.7442C324.798 51.5932 326.34 52.0147 327.963 52.0147C329.585 52.0147 331.168 51.5989 332.606 50.7673C334.038 49.9357 335.199 48.723 336.088 47.1175C336.972 45.5121 337.416 43.6352 337.416 41.4869C337.416 39.3386 336.972 37.4675 336.088 35.8851V35.8909Z" fill="#005591"/>
  <path d="M362.064 26.7491C363.629 25.8655 365.489 25.4208 367.637 25.4208V32.0968H365.997C363.467 32.0968 361.556 32.7378 360.251 34.0198C358.951 35.3019 358.299 37.531 358.299 40.6957V57.1083H351.848V25.9233H358.299V30.4509C359.24 28.8685 360.493 27.6327 362.064 26.7433V26.7491Z" fill="#005591"/>
  <path d="M401.369 43.924H377.541C377.732 46.413 378.656 48.4169 380.313 49.9242C381.97 51.4315 384.009 52.188 386.423 52.188C389.894 52.188 392.348 50.7385 393.78 47.8279H400.739C399.798 50.698 398.088 53.0427 395.617 54.8734C393.145 56.7041 390.079 57.6165 386.423 57.6165C383.443 57.6165 380.775 56.9466 378.413 55.6068C376.057 54.267 374.203 52.3786 372.869 49.9473C371.529 47.516 370.859 44.692 370.859 41.4869C370.859 38.2818 371.512 35.4578 372.811 33.0265C374.111 30.5952 375.941 28.7184 378.303 27.3959C380.659 26.0734 383.368 25.4151 386.423 25.4151C389.478 25.4151 391.99 26.0561 394.288 27.3381C396.587 28.6202 398.383 30.422 399.665 32.7435C400.947 35.0651 401.588 37.7332 401.588 40.7535C401.588 41.9258 401.513 42.9826 401.363 43.924H401.369ZM394.86 38.7207C394.82 36.3414 393.971 34.4414 392.313 33.0034C390.65 31.5712 388.594 30.8551 386.146 30.8551C383.917 30.8551 382.017 31.5597 380.428 32.9745C378.846 34.3894 377.899 36.3067 377.599 38.7207H394.86Z" fill="#005591"/>
  <path d="M444.658 17.7805V23.0415H434.188V57.1083H427.737V23.0415H417.209V17.7805H444.658Z" fill="#005591"/>
  <path d="M478.956 43.924H455.128C455.319 46.413 456.243 48.4169 457.9 49.9242C459.558 51.4315 461.596 52.188 464.01 52.188C467.481 52.188 469.935 50.7385 471.368 47.8279H478.327C477.385 50.698 475.676 53.0427 473.204 54.8734C470.732 56.7041 467.666 57.6165 464.01 57.6165C461.03 57.6165 458.362 56.9466 456 55.6068C453.644 54.267 451.79 52.3786 450.456 49.9473C449.117 47.516 448.447 44.692 448.447 41.4869C448.447 38.2818 449.099 35.4578 450.399 33.0265C451.698 30.5952 453.529 28.7184 455.891 27.3959C458.247 26.0734 460.955 25.4151 464.01 25.4151C467.065 25.4151 469.577 26.0561 471.876 27.3381C474.174 28.6202 475.97 30.422 477.252 32.7435C478.534 35.0651 479.176 37.7332 479.176 40.7535C479.176 41.9258 479.1 42.9826 478.95 43.924H478.956ZM472.448 38.7207C472.407 36.3414 471.558 34.4414 469.901 33.0034C468.238 31.5712 466.182 30.8551 463.733 30.8551C461.504 30.8551 459.604 31.5597 458.016 32.9745C456.434 34.3894 455.486 36.3067 455.186 38.7207H472.448Z" fill="#005591"/>
  <path d="M495.166 26.7491C496.731 25.8655 498.591 25.4208 500.739 25.4208V32.0968H499.099C496.57 32.0968 494.658 32.7378 493.353 34.0198C492.054 35.3019 491.401 37.531 491.401 40.6957V57.1083H484.95V25.9233H491.401V30.4509C492.342 28.8685 493.596 27.6327 495.166 26.7433V26.7491Z" fill="#005591"/>
  <path d="M534.471 43.924H510.643C510.834 46.413 511.758 48.4169 513.415 49.9242C515.073 51.4315 517.111 52.188 519.525 52.188C522.996 52.188 525.451 50.7385 526.883 47.8279H533.842C532.9 50.698 531.191 53.0427 528.719 54.8734C526.247 56.7041 523.181 57.6165 519.525 57.6165C516.545 57.6165 513.877 56.9466 511.515 55.6068C509.159 54.267 507.305 52.3786 505.971 49.9473C504.632 47.516 503.962 44.692 503.962 41.4869C503.962 38.2818 504.614 35.4578 505.914 33.0265C507.213 30.5952 509.044 28.7184 511.406 27.3959C513.762 26.0734 516.47 25.4151 519.525 25.4151C522.58 25.4151 525.092 26.0561 527.391 27.3381C529.689 28.6202 531.485 30.422 532.767 32.7435C534.05 35.0651 534.691 37.7332 534.691 40.7535C534.691 41.9258 534.615 42.9826 534.465 43.924H534.471ZM527.963 38.7207C527.922 36.3414 527.073 34.4414 525.416 33.0034C523.753 31.5712 521.697 30.8551 519.248 30.8551C517.019 30.8551 515.119 31.5597 513.531 32.9745C511.949 34.3894 511.001 36.3067 510.701 38.7207H527.963Z" fill="#005591"/>
  <path d="M545.195 56.2882C543.249 55.4047 541.713 54.1919 540.581 52.6673C539.449 51.1369 538.843 49.4333 538.767 47.5449H545.443C545.559 48.8674 546.188 49.9704 547.338 50.854C548.487 51.7433 549.931 52.1822 551.669 52.1822C553.407 52.1822 554.885 51.8357 555.885 51.1369C556.884 50.4382 557.386 49.543 557.386 48.4516C557.386 47.285 556.826 46.413 555.717 45.847C554.603 45.2811 552.841 44.6574 550.427 43.9817C548.088 43.3407 546.183 42.717 544.71 42.1164C543.237 41.5158 541.967 40.586 540.887 39.3444C539.813 38.097 539.276 36.4569 539.276 34.4183C539.276 32.7609 539.767 31.242 540.748 29.8618C541.73 28.4874 543.133 27.4017 544.964 26.6047C546.795 25.8135 548.897 25.4151 551.276 25.4151C554.822 25.4151 557.681 26.3102 559.852 28.1004C562.023 29.8907 563.178 32.3335 563.334 35.4289H556.884C556.768 34.0314 556.202 32.9226 555.186 32.091C554.169 31.2594 552.789 30.8436 551.057 30.8436C549.324 30.8436 548.059 31.167 547.153 31.808C546.246 32.449 545.796 33.2979 545.796 34.3548C545.796 35.1864 546.096 35.8852 546.702 36.4511C547.303 37.0171 548.042 37.4617 548.908 37.7794C549.775 38.1028 551.057 38.507 552.755 38.9979C555.018 39.6043 556.878 40.2164 558.327 40.8343C559.777 41.458 561.036 42.3705 562.093 43.5775C563.149 44.7844 563.698 46.3899 563.733 48.388C563.733 50.161 563.242 51.7433 562.26 53.1409C561.278 54.5384 559.892 55.6299 558.102 56.4211C556.312 57.2122 554.204 57.6107 551.79 57.6107C549.376 57.6107 547.141 57.1661 545.195 56.2825V56.2882Z" fill="#005591"/>
  <path d="M569.924 33.0612C571.223 30.6472 572.996 28.7704 575.243 27.4306C577.489 26.0908 579.966 25.4208 582.687 25.4208C585.141 25.4208 587.278 25.9002 589.108 26.8646C590.939 27.829 592.4 29.0245 593.492 30.4567V25.9291H600V57.1141H593.492V52.471C592.394 53.9436 590.904 55.1679 589.022 56.1497C587.133 57.1314 584.985 57.6223 582.571 57.6223C579.891 57.6223 577.437 56.9351 575.214 55.5548C572.985 54.1804 571.223 52.2515 569.924 49.7798C568.624 47.3081 567.972 44.5072 567.972 41.3772C567.972 38.2471 568.624 35.4751 569.924 33.0554V33.0612ZM592.169 35.8909C591.28 34.3086 590.125 33.1016 588.687 32.27C587.255 31.4384 585.707 31.0226 584.044 31.0226C582.38 31.0226 580.839 31.4269 579.401 32.2411C577.968 33.0554 576.808 34.2393 575.918 35.8043C575.029 37.3693 574.59 39.2289 574.59 41.3772C574.59 43.5255 575.035 45.4139 575.918 47.0367C576.802 48.6595 577.974 49.8953 579.429 50.7442C580.879 51.5932 582.421 52.0148 584.044 52.0148C585.666 52.0148 587.249 51.5989 588.687 50.7673C590.119 49.9357 591.28 48.723 592.169 47.1175C593.053 45.5121 593.497 43.6352 593.497 41.4869C593.497 39.3386 593.053 37.4675 592.169 35.8852V35.8909Z" fill="#005591"/>
  <path d="M246.639 77.1764V105.174H243.838V92.0759H228.661V105.174H225.861V77.1764H228.661V89.7544H243.838V77.1764H246.639Z" fill="#005591"/>
  <path d="M256.67 104.111C255.03 103.193 253.731 101.882 252.784 100.184C251.836 98.4862 251.363 96.5054 251.363 94.2358C251.363 91.9662 251.842 89.9854 252.807 88.2876C253.765 86.5897 255.076 85.2846 256.734 84.3606C258.391 83.4366 260.245 82.9803 262.301 82.9803C264.357 82.9803 266.216 83.4423 267.885 84.3606C269.554 85.2846 270.859 86.5897 271.812 88.2876C272.759 89.9854 273.233 91.9662 273.233 94.2358C273.233 96.5054 272.754 98.4573 271.789 100.161C270.83 101.87 269.508 103.187 267.822 104.105C266.141 105.029 264.27 105.486 262.214 105.486C260.158 105.486 258.31 105.024 256.664 104.105L256.67 104.111ZM266.222 102.067C267.452 101.414 268.445 100.427 269.208 99.1041C269.97 97.7817 270.351 96.1589 270.351 94.2358C270.351 92.3127 269.976 90.69 269.231 89.3675C268.486 88.045 267.492 87.0575 266.268 86.4049C265.038 85.7523 263.704 85.4232 262.26 85.4232C260.817 85.4232 259.483 85.7523 258.252 86.4049C257.022 87.0575 256.041 88.045 255.307 89.3675C254.574 90.69 254.204 92.3127 254.204 94.2358C254.204 96.1589 254.574 97.7817 255.307 99.1041C256.041 100.427 257.017 101.414 258.229 102.067C259.442 102.719 260.77 103.048 262.214 103.048C263.658 103.048 264.992 102.719 266.216 102.067H266.222Z" fill="#005591"/>
  <path d="M279.337 103.753C277.749 102.592 276.859 101.01 276.675 99.006H279.556C279.689 100.236 280.272 101.229 281.3 101.992C282.328 102.754 283.709 103.135 285.447 103.135C286.972 103.135 288.161 102.777 289.033 102.055C289.905 101.333 290.333 100.438 290.333 99.3698C290.333 98.6248 290.09 98.0069 289.611 97.5276C289.131 97.0482 288.525 96.6671 287.786 96.3841C287.052 96.1011 286.059 95.8008 284.8 95.4832C283.172 95.0559 281.849 94.6285 280.833 94.2012C279.816 93.7738 278.956 93.1386 278.251 92.3012C277.547 91.4638 277.189 90.3319 277.189 88.917C277.189 87.8486 277.512 86.8611 278.147 85.9544C278.788 85.0478 279.695 84.3259 280.873 83.7946C282.045 83.2633 283.385 82.9919 284.881 82.9919C287.231 82.9919 289.126 83.5867 290.569 84.7764C292.013 85.966 292.787 87.6003 292.891 89.6851H290.09C290.009 88.4031 289.507 87.3693 288.589 86.5782C287.665 85.7928 286.406 85.3943 284.806 85.3943C283.391 85.3943 282.242 85.7292 281.364 86.3934C280.48 87.0633 280.042 87.8891 280.042 88.8766C280.042 89.7313 280.301 90.4301 280.821 90.9787C281.341 91.5273 281.988 91.9547 282.762 92.2608C283.535 92.5668 284.575 92.9076 285.886 93.2829C287.462 93.7103 288.716 94.1261 289.651 94.5246C290.587 94.923 291.384 95.5121 292.054 96.2859C292.723 97.0598 293.07 98.0877 293.093 99.3698C293.093 100.542 292.77 101.593 292.134 102.511C291.493 103.435 290.598 104.163 289.449 104.694C288.3 105.226 286.977 105.497 285.482 105.497C282.969 105.497 280.919 104.914 279.331 103.753H279.337Z" fill="#005591"/>
  <path d="M304.048 84.4472C305.556 83.4712 307.352 82.9861 309.436 82.9861C311.411 82.9861 313.196 83.4481 314.784 84.3663C316.372 85.2903 317.614 86.5955 318.509 88.2933C319.404 89.9912 319.849 91.9604 319.849 94.2012C319.849 96.4419 319.398 98.4227 318.509 100.126C317.614 101.836 316.372 103.158 314.784 104.094C313.196 105.029 311.411 105.497 309.436 105.497C307.461 105.497 305.59 105.012 304.071 104.036C302.547 103.06 301.444 101.841 300.745 100.369V115.511H297.979V83.3095H300.745V88.1143C301.438 86.6475 302.541 85.4232 304.048 84.4472ZM315.945 89.4945C315.234 88.172 314.27 87.1672 313.04 86.4684C311.81 85.7754 310.424 85.4289 308.876 85.4289C307.328 85.4289 306.012 85.787 304.77 86.5089C303.529 87.2307 302.547 88.2587 301.825 89.5927C301.103 90.9267 300.745 92.4744 300.745 94.2358C300.745 95.9972 301.103 97.5449 301.825 98.8789C302.547 100.213 303.529 101.241 304.77 101.963C306.012 102.685 307.38 103.043 308.876 103.043C310.372 103.043 311.816 102.69 313.04 101.98C314.27 101.276 315.234 100.248 315.945 98.8962C316.649 97.5507 317.007 95.9799 317.007 94.1896C317.007 92.3994 316.655 90.8055 315.945 89.483V89.4945Z" fill="#005591"/>
  <path d="M324.578 78.5798C324.18 78.1813 323.978 77.6846 323.978 77.0956C323.978 76.5065 324.18 76.0214 324.578 75.6345C324.977 75.2476 325.462 75.0512 326.022 75.0512C326.582 75.0512 327.062 75.2476 327.466 75.6345C327.864 76.0214 328.067 76.5065 328.067 77.0956C328.067 77.6846 327.864 78.1755 327.466 78.5798C327.067 78.984 326.582 79.1804 326.022 79.1804C325.462 79.1804 324.983 78.9782 324.578 78.5798ZM327.42 83.3037V105.174H324.619V83.3037H327.42Z" fill="#005591"/>
  <path d="M333.466 88.2933C334.373 86.5955 335.632 85.2903 337.232 84.3663C338.831 83.4423 340.662 82.9861 342.718 82.9861C345.415 82.9861 347.638 83.656 349.388 84.99C351.138 86.3241 352.264 88.1432 352.772 90.4359H349.769C349.394 88.8593 348.585 87.6234 347.344 86.7341C346.102 85.8389 344.56 85.3943 342.718 85.3943C341.251 85.3943 339.928 85.7292 338.75 86.3934C337.572 87.0633 336.648 88.0566 335.967 89.379C335.285 90.7015 334.945 92.3243 334.945 94.2474C334.945 96.1704 335.285 97.799 335.967 99.133C336.648 100.467 337.572 101.472 338.75 102.136C339.923 102.806 341.245 103.135 342.718 103.135C344.56 103.135 346.102 102.69 347.344 101.795C348.585 100.9 349.394 99.6528 349.769 98.0531H352.772C352.264 100.294 351.132 102.096 349.371 103.459C347.609 104.821 345.392 105.503 342.724 105.503C340.668 105.503 338.837 105.041 337.237 104.123C335.638 103.204 334.379 101.893 333.472 100.196C332.565 98.4978 332.109 96.5169 332.109 94.2474C332.109 91.9778 332.565 89.997 333.472 88.2991L333.466 88.2933Z" fill="#005591"/>
  <path d="M377.241 95.3215H359.096C359.176 96.9789 359.575 98.3938 360.297 99.5661C361.019 100.738 361.966 101.628 363.138 102.228C364.31 102.829 365.592 103.129 366.984 103.129C368.798 103.129 370.328 102.69 371.57 101.807C372.811 100.923 373.631 99.7394 374.03 98.2437H376.992C376.455 100.38 375.318 102.124 373.568 103.47C371.818 104.821 369.623 105.491 366.978 105.491C364.923 105.491 363.08 105.029 361.452 104.111C359.823 103.193 358.547 101.882 357.629 100.184C356.705 98.4862 356.248 96.5054 356.248 94.2358C356.248 91.9662 356.705 89.9796 357.611 88.2702C358.518 86.5608 359.789 85.2557 361.417 84.3432C363.046 83.4366 364.899 82.9803 366.984 82.9803C369.069 82.9803 370.888 83.4366 372.453 84.3432C374.012 85.2499 375.214 86.4742 376.057 88.0104C376.9 89.5465 377.316 91.2501 377.316 93.1155C377.316 94.0741 377.287 94.8133 377.235 95.3157L377.241 95.3215ZM373.498 88.8708C372.817 87.7216 371.887 86.8554 370.715 86.2663C369.543 85.6772 368.26 85.3827 366.869 85.3827C364.784 85.3827 363.011 86.0526 361.544 87.3867C360.077 88.7207 359.263 90.6033 359.101 93.0346H374.48C374.503 91.4061 374.18 90.0201 373.498 88.8708Z" fill="#005591"/>
</svg>